<svg width="20" height="20" viewBox="0 0 20 20" fill="none" xmlns="http://www.w3.org/2000/svg">
<path d="M0.937034 14.3382L0.937137 14.338C1.22998 13.8609 1.61379 13.5027 2.09347 13.2539C3.26607 12.6679 4.45462 12.2296 5.6595 11.9374C6.54618 11.723 7.44418 11.5874 8.35082 11.5307C8.67788 11.5102 8.97455 11.7806 8.97455 12.1562C8.97455 12.5165 8.67323 12.8427 8.25935 12.8746C7.49358 12.9336 6.73218 13.0557 5.97681 13.2409L5.97648 13.241C4.86868 13.5133 3.7741 13.9206 2.69306 14.4611L2.68334 14.466L2.67384 14.4713C2.42177 14.6113 2.21852 14.8087 2.06811 15.0553C1.91046 15.3123 1.83333 15.5979 1.83333 15.9V16.8333V17.3333H2.33333H8.30789C8.67608 17.3333 8.97455 17.6318 8.97455 18C8.97455 18.3682 8.67608 18.6667 8.30789 18.6667H2.33333C1.8252 18.6667 1.403 18.4917 1.03955 18.1283C0.67515 17.7639 0.5 17.3412 0.5 16.8333V15.9C0.5 15.3297 0.645531 14.8127 0.937034 14.3382ZM14.7788 13.3834H13.5717L14.4253 14.237L18.5485 18.3602C18.7399 18.5516 18.7399 18.8618 18.5485 19.0531C18.3572 19.2445 18.047 19.2445 17.8556 19.0531L13.7324 14.9299L12.8788 14.0763V15.2834V17.8834C12.8788 18.1596 12.655 18.3834 12.3788 18.3834C12.1027 18.3834 11.8788 18.1596 11.8788 17.8834V12.8834C11.8788 12.6073 12.1027 12.3834 12.3788 12.3834H17.3788C17.6549 12.3834 17.8788 12.6073 17.8788 12.8834C17.8788 13.1596 17.6549 13.3834 17.3788 13.3834H14.7788ZM9.33333 9.33333C8.18366 9.33333 7.21192 8.92982 6.39105 8.10895C5.57018 7.28808 5.16667 6.31634 5.16667 5.16667C5.16667 4.017 5.57018 3.04526 6.39105 2.22439C7.21192 1.40352 8.18366 1 9.33333 1C10.483 1 11.4547 1.40352 12.2756 2.22439C13.0965 3.04526 13.5 4.017 13.5 5.16667C13.5 6.31634 13.0965 7.28808 12.2756 8.10895C11.4547 8.92982 10.483 9.33333 9.33333 9.33333ZM9.33333 8C10.1088 8 10.7851 7.71782 11.3354 7.16755C11.8851 6.61789 12.1667 5.94187 12.1667 5.16667C12.1667 4.39146 11.8851 3.71545 11.3354 3.16578C10.7851 2.61552 10.1088 2.33333 9.33333 2.33333C8.55796 2.33333 7.88192 2.61547 7.33236 3.16586C6.78208 3.71539 6.5 4.39137 6.5 5.16667C6.5 5.942 6.78211 6.61801 7.33245 7.16755C7.88199 7.71789 8.558 8 9.33333 8Z" fill="white" stroke="currentColor"/>
</svg>
