<svg width="58" height="58" viewBox="0 0 58 58" fill="none" xmlns="http://www.w3.org/2000/svg">
<rect x="2.2218" y="2.17224" width="53.5894" height="53.5894" rx="26.7947" fill="#18181B"/>
<path d="M36.9741 15.5365C36.4373 15.5365 36.0078 15.7166 35.6499 16.0408C35.292 16.401 35.113 16.8332 35.113 17.4095V25.1898V28.0353C35.113 28.0353 35.113 29.152 35.113 30.3406H35.0772C35.0772 30.3766 35.0772 30.4126 35.113 30.4487C35.113 30.7728 35.113 31.097 35.113 31.4212C35.113 33.8705 35.0414 35.4554 32.9298 37.4725C32.6793 37.6886 32.393 37.8687 32.1067 38.0488C31.1045 38.6612 30.0308 38.9493 28.814 38.9493C27.5971 38.9493 26.4876 38.6612 25.5213 38.0488C24.5192 37.4365 23.7676 36.608 23.195 35.5635C22.6223 34.5189 22.336 33.3302 22.336 32.0335C22.336 30.7368 22.6223 29.5482 23.195 28.5036C23.7676 27.459 24.555 26.6306 25.5213 26.0543C26.4161 25.514 27.3824 25.2258 28.4203 25.1538L27.1319 26.4505C26.4518 27.1348 26.4518 28.2875 27.1319 29.0079C27.8119 29.6922 28.9571 29.6922 29.6729 29.0079L33.8962 24.7575C34.5762 24.0732 34.5762 22.9205 33.8962 22.2001L29.6372 17.9498C28.9571 17.2654 27.8119 17.2654 27.0961 17.9498C26.4161 18.6342 26.4161 19.7868 27.0961 20.5072L28.4561 21.876C28.3129 21.876 28.2056 21.876 28.0624 21.876C26.3087 21.876 24.7339 22.3082 23.3023 23.2087C21.8707 24.1092 20.7612 25.2978 19.9381 26.8827C19.0791 28.3955 18.6854 30.1245 18.6854 32.0335C18.6854 33.9426 19.1149 35.6715 20.0097 37.2564C20.9044 38.8052 22.0855 40.0299 23.6602 40.9304C25.1992 41.8309 26.9171 42.2631 28.7782 42.2631C30.6393 42.2631 32.3572 41.8309 33.8604 40.9304C35.3993 40.0299 36.5804 38.8052 37.4752 37.2564C38.3699 35.7075 38.7994 33.9786 38.7994 32.0335V17.4095C38.7994 16.8332 38.6204 16.401 38.2983 16.0408C37.9762 15.7166 37.511 15.5365 36.9741 15.5365Z" fill="white"/>
<rect x="2.2218" y="2.17224" width="53.5894" height="53.5894" rx="26.7947" stroke="white" stroke-width="4"/>
</svg>
