<svg width="41" height="40" viewBox="0 0 41 40" fill="none" xmlns="http://www.w3.org/2000/svg">
<path d="M24.1281 17.5H30.3781" stroke="currentColor" stroke-width="2" stroke-linecap="round" stroke-linejoin="round"/>
<path d="M24.1281 22.5H30.3781" stroke="currentColor" stroke-width="2" stroke-linecap="round" stroke-linejoin="round"/>
<path d="M14.7687 22.5C16.8397 22.5 18.5187 20.8211 18.5187 18.75C18.5187 16.6789 16.8397 15 14.7687 15C12.6976 15 11.0187 16.6789 11.0187 18.75C11.0187 20.8211 12.6976 22.5 14.7687 22.5Z" stroke="currentColor" stroke-width="2" stroke-linecap="round" stroke-linejoin="round"/>
<path d="M9.92627 26.2499C10.2037 25.1766 10.8298 24.2259 11.7063 23.5471C12.5828 22.8684 13.66 22.5 14.7686 22.5C15.8771 22.5 16.9543 22.8682 17.8308 23.5469C18.7074 24.2256 19.3336 25.1763 19.6111 26.2496" stroke="currentColor" stroke-width="2" stroke-linecap="round" stroke-linejoin="round"/>
<path d="M34.1281 7.5H6.62805C5.9377 7.5 5.37805 8.05964 5.37805 8.75V31.25C5.37805 31.9404 5.9377 32.5 6.62805 32.5H34.1281C34.8184 32.5 35.3781 31.9404 35.3781 31.25V8.75C35.3781 8.05964 34.8184 7.5 34.1281 7.5Z" stroke="currentColor" stroke-width="2" stroke-linecap="round" stroke-linejoin="round"/>
</svg>
