<svg width="12" height="14" viewBox="0 0 12 14" fill="none" xmlns="http://www.w3.org/2000/svg">
<path d="M4.64962 11.4L3.80002 10.5504L5.15042 9.20001L3.80002 7.84961L4.64962 7.00001L6.00002 8.35041L7.35042 7.00001L8.20002 7.84961L6.84962 9.20001L8.20002 10.5504L7.35042 11.4L6.00002 10.0496L4.64962 11.4ZM1.60002 13.4C1.26669 13.4 0.983491 13.2805 0.750424 13.0416C0.516824 12.8027 0.400024 12.5221 0.400024 12.2V3.40001C0.400024 3.07787 0.516824 2.79734 0.750424 2.55841C0.983491 2.31947 1.26669 2.20001 1.60002 2.20001H2.80002V0.600006H4.00002V2.20001H8.00002V0.600006H9.20002V2.20001H10.4C10.7334 2.20001 11.0166 2.31947 11.2496 2.55841C11.4832 2.79734 11.6 3.07787 11.6 3.40001V12.2C11.6 12.5221 11.4832 12.8027 11.2496 13.0416C11.0166 13.2805 10.7334 13.4 10.4 13.4H1.60002ZM1.60002 12.2H10.4V6.20001H1.60002V12.2Z" fill="#FEC84B"/>
</svg>
