<svg width="24" height="24" viewBox="0 0 24 24" fill="none" xmlns="http://www.w3.org/2000/svg">
<path d="M16.1254 12.0009C16.1289 14.6889 15.6052 17.3515 14.5842 19.8381" stroke="#A1A1AA" stroke-width="2" stroke-linecap="round" stroke-linejoin="round"/>
<path d="M15.0749 9.2506C14.5179 8.62798 13.785 8.18915 12.9732 7.99217C12.1614 7.79519 11.3089 7.84934 10.5285 8.14746C9.74808 8.44557 9.0766 8.9736 8.60287 9.66168C8.12914 10.3498 7.87549 11.1655 7.87549 12.0009C7.87873 14.0973 7.3469 16.1599 6.33032 17.9935" stroke="#A1A1AA" stroke-width="2" stroke-linecap="round" stroke-linejoin="round"/>
<path d="M9.25049 4.22032C10.495 3.78167 11.8266 3.64775 13.1336 3.82978C14.4406 4.0118 15.6849 4.50447 16.7622 5.26649C17.8395 6.02851 18.7185 7.03767 19.3254 8.2094C19.9324 9.38112 20.2496 10.6813 20.2505 12.0009C20.2517 13.8513 20.046 15.6961 19.6373 17.5008" stroke="#A1A1AA" stroke-width="2" stroke-linecap="round" stroke-linejoin="round"/>
<path d="M3.0025 15.4382C3.49701 14.3598 3.75221 13.1871 3.75056 12.0007C3.74925 10.8397 3.9936 9.69164 4.46755 8.63182C4.94151 7.572 5.63434 6.62446 6.50054 5.85144" stroke="#A1A1AA" stroke-width="2" stroke-linecap="round" stroke-linejoin="round"/>
<path d="M10.5034 18.8759C10.3291 19.2556 10.141 19.6274 9.93915 19.9912" stroke="#A1A1AA" stroke-width="2" stroke-linecap="round" stroke-linejoin="round"/>
<path d="M11.9995 12.0009C12.0005 13.3923 11.8259 14.7782 11.4797 16.1259" stroke="#A1A1AA" stroke-width="2" stroke-linecap="round" stroke-linejoin="round"/>
</svg>
