<svg width="16" height="16" viewBox="0 0 16 16" fill="none" xmlns="http://www.w3.org/2000/svg">
<path fill-rule="evenodd" clip-rule="evenodd" d="M14.4001 8.0001C14.4001 11.5347 11.5347 14.4001 8.00009 14.4001C4.46547 14.4001 1.6001 11.5347 1.6001 8.0001C1.6001 4.46548 4.46547 1.6001 8.00009 1.6001C11.5347 1.6001 14.4001 4.46548 14.4001 8.0001ZM8.80009 4.8001C8.80009 5.24193 8.44192 5.6001 8.00009 5.6001C7.55827 5.6001 7.2001 5.24193 7.2001 4.8001C7.2001 4.35827 7.55827 4.0001 8.00009 4.0001C8.44192 4.0001 8.80009 4.35827 8.80009 4.8001ZM7.2001 7.2001C6.75827 7.2001 6.4001 7.55827 6.4001 8.0001C6.4001 8.44193 6.75827 8.8001 7.2001 8.8001V11.2001C7.2001 11.6419 7.55827 12.0001 8.00009 12.0001H8.80009C9.24192 12.0001 9.60009 11.6419 9.60009 11.2001C9.60009 10.7583 9.24192 10.4001 8.80009 10.4001V8.0001C8.80009 7.55827 8.44192 7.2001 8.00009 7.2001H7.2001Z" fill="white"/>
</svg>
