<svg width="16" height="13" viewBox="0 0 16 13" fill="none" xmlns="http://www.w3.org/2000/svg">
<path d="M0.683228 12.4664L8.00003 0.266418L15.3168 12.4664H0.683228ZM8.00003 10.3832C8.16643 10.3832 8.31096 10.3248 8.43363 10.208C8.55576 10.0918 8.61683 9.94455 8.61683 9.76642C8.61683 9.60002 8.55843 9.45575 8.44163 9.33362C8.32483 9.21149 8.17763 9.15042 8.00003 9.15042C7.83363 9.15042 7.68909 9.20855 7.56643 9.32482C7.44429 9.44162 7.38323 9.58882 7.38323 9.76642C7.38323 9.93335 7.44163 10.0779 7.55843 10.2C7.67523 10.3222 7.82243 10.3832 8.00003 10.3832ZM7.40003 8.40002H8.60003V5.24962H7.40003V8.40002Z" fill="#F97066"/>
</svg>
