<svg width="25" height="19" viewBox="0 0 25 19" fill="none" xmlns="http://www.w3.org/2000/svg">
  <path fill-rule="evenodd" clip-rule="evenodd" d="M6.59354 2.20687C6.49666 2.30139 6.39262 2.40497 6.25368 2.54473C6.25368 2.54473 3.96483 4.83512 3.95718 4.84173C3.88618 4.90909 3.82708 4.96669 3.76582 5.02759C3.73768 5.05573 3.71263 5.08049 3.65924 5.13301C3.61334 5.17816 3.59208 5.19913 3.56562 5.22545L1.49613 7.29728C1.45171 7.34336 1.4136 7.38216 1.3646 7.43138L1.3088 7.48747C1.24562 7.55077 1.19563 7.60229 1.12497 7.67598C0.962908 7.8359 0.798572 8.01674 0.643829 8.2064C0.500049 8.35971 0.383971 8.53693 0.300864 8.73017L0.278906 8.78863C0.129209 9.25206 0.129209 9.75085 0.278906 10.2143L0.30183 10.275C0.385568 10.4677 0.502262 10.6443 0.646588 10.7968C0.800678 10.9862 0.964894 11.167 1.13852 11.3387C1.17504 11.3781 1.22887 11.433 1.30075 11.5049C1.3504 11.5546 1.37177 11.576 1.39838 11.6028C1.43277 11.6375 1.46248 11.6678 1.49007 11.6964L3.56502 13.7752C3.66783 13.878 3.71385 13.9237 3.79619 14.004C3.86387 14.0709 3.90392 14.1099 3.97809 14.1783L6.25573 16.4592C6.42645 16.6299 6.50303 16.7062 6.59956 16.801C6.72504 16.9265 6.80775 17.0077 6.93696 17.1339C6.98563 17.1853 7.00387 17.2041 7.02883 17.2274C7.32042 17.5204 7.67608 17.7794 8.06553 17.9781C8.45536 18.1744 8.86868 18.3108 9.29525 18.3845C9.69492 18.4503 10.0937 18.4855 10.4935 18.4905C10.6631 18.4943 10.8332 18.4966 11.0012 18.4972L11.4014 18.4972H18.8471C19.0017 18.4972 19.1548 18.495 19.3672 18.4904C19.7646 18.4855 20.1674 18.4502 20.5659 18.3848C21.001 18.3096 21.4172 18.1719 21.8063 17.9753C22.2007 17.7759 22.5606 17.515 22.8727 17.2024C23.1834 16.8905 23.4432 16.5327 23.6433 16.1414C23.8415 15.7471 23.9786 15.3301 24.0524 14.8998C24.1184 14.4964 24.1535 14.0939 24.1583 13.6905C24.1613 13.5914 24.1628 13.5041 24.1651 13.3098L24.1666 13.1854L24.1667 12.5724V5.78496L24.1655 5.67759C24.1642 5.55784 24.1636 5.50554 24.1624 5.43844C24.1614 5.37551 24.1601 5.31778 24.1584 5.26216C24.1539 4.87427 24.1192 4.47532 24.0546 4.08065C23.9804 3.64863 23.8444 3.23519 23.6503 2.84831C23.4491 2.45523 23.191 2.10014 22.883 1.79114C22.5747 1.48074 22.2176 1.22102 21.8261 1.02283C21.4399 0.827451 21.0269 0.690648 20.6007 0.61679C20.1991 0.551483 19.8002 0.516644 19.4004 0.511408C19.2194 0.507024 19.0523 0.504685 18.8917 0.504685C18.7296 0.503022 18.5955 0.502686 18.2945 0.502686H11.5991C11.3002 0.502686 11.1652 0.503024 10.9958 0.504719C10.8422 0.504685 10.6757 0.507009 10.4848 0.511538C10.0926 0.516688 9.69433 0.551534 9.30031 0.615661C8.86693 0.69077 8.45366 0.827425 8.06709 1.02233C7.67473 1.22222 7.31888 1.48149 7.01034 1.79173C6.99605 1.8058 6.98558 1.81681 6.89823 1.91005C6.78986 2.01281 6.6902 2.10987 6.59354 2.20687ZM4.00227 4.80395L4.00472 4.80203C4.00173 4.80428 3.99965 4.80584 3.99708 4.80798L4.00227 4.80395ZM7.19875 15.5169L4.89674 13.2115C4.89674 13.2115 4.85082 13.1698 4.84605 13.1657C4.81053 13.1318 4.77997 13.1019 4.70365 13.0265C4.64856 12.973 4.6057 12.9305 4.50812 12.8329L2.44149 10.7626C2.41725 10.7374 2.38349 10.7029 2.34519 10.6643C2.31675 10.6356 2.29377 10.6126 2.24343 10.5622C2.18015 10.4989 2.13471 10.4526 2.09235 10.4076C1.93052 10.247 1.79353 10.0955 1.66537 9.93655L1.62146 9.8873C1.58755 9.85286 1.55915 9.81348 1.53722 9.77055C1.48718 9.59419 1.48731 9.40733 1.5376 9.23102C1.55957 9.18731 1.58812 9.14718 1.6223 9.11204L1.66268 9.06655C1.79154 8.90731 1.92912 8.75533 2.07478 8.6113C2.15283 8.53025 2.19794 8.48377 2.23205 8.44919C2.2752 8.40624 2.27527 8.40617 2.30921 8.37213L2.30922 8.37211L2.30937 8.37196C2.3636 8.31749 2.40696 8.27334 2.44859 8.22998L4.50739 6.16905C4.52998 6.14657 4.54913 6.12769 4.60323 6.07446C4.65 6.02845 4.67708 6.00169 4.70709 5.97167C4.75353 5.92552 4.79921 5.88088 4.84406 5.83787C4.85392 5.82964 4.86539 5.819 4.89806 5.7887L4.89807 5.7887L7.19806 3.48571C7.33383 3.34914 7.43368 3.24973 7.53141 3.15429C7.6254 3.06006 7.71611 2.97172 7.81204 2.88073C7.8333 2.86089 7.84601 2.8476 7.90473 2.7853L7.95114 2.73627C8.16462 2.52166 8.40568 2.34602 8.66978 2.21147C8.93647 2.07701 9.22424 1.98186 9.52126 1.93035C9.84349 1.87795 10.176 1.84885 10.5094 1.84444C10.6975 1.84002 10.8538 1.83784 11.0025 1.83784C11.1727 1.83617 11.3047 1.83584 11.5991 1.83584H18.2945C18.5911 1.83584 18.7222 1.83617 18.885 1.8378C19.0406 1.83784 19.1974 1.84003 19.3757 1.84431C19.717 1.84882 20.0502 1.87792 20.3799 1.93152C20.6692 1.98168 20.956 2.07671 21.2242 2.21235C21.4882 2.34601 21.7293 2.52132 21.9379 2.73147C22.1492 2.94337 22.3254 3.18581 22.4611 3.451C22.594 3.71587 22.6888 4.0039 22.7399 4.30111C22.7927 4.62447 22.8216 4.95681 22.8256 5.28991C22.8273 5.35149 22.8285 5.40372 22.8295 5.46136C22.8306 5.52464 22.8312 5.57506 22.8325 5.69193L22.8336 5.79296L22.8335 6.38255V13.1707L22.832 13.2941C22.8298 13.4805 22.8285 13.5625 22.8255 13.6628C22.8212 14.0113 22.792 14.3472 22.7376 14.6795C22.6869 14.9749 22.5911 15.2662 22.4542 15.5387C22.3192 15.8025 22.1412 16.0477 21.9287 16.261C21.7172 16.4729 21.4727 16.6501 21.2049 16.7855C20.9339 16.9225 20.6438 17.0184 20.3444 17.0701C20.0174 17.1238 19.6813 17.1533 19.3445 17.1575C19.1346 17.162 18.9901 17.1641 18.8471 17.1641H11.0038C10.8467 17.1634 10.6846 17.1613 10.5166 17.1576C10.1775 17.1533 9.84543 17.124 9.517 17.0699C9.22521 17.0195 8.93748 16.9246 8.66831 16.789C8.40696 16.6556 8.16536 16.4797 7.95562 16.2694C7.94307 16.2571 7.92566 16.2391 7.90363 16.2159L7.9009 16.213C7.84842 16.1577 7.83658 16.1452 7.82417 16.1333L7.80918 16.1192C7.73298 16.0477 7.65851 15.9746 7.53804 15.8542C7.44106 15.7589 7.36633 15.6845 7.19875 15.5169ZM11.9794 13.0277C11.9253 13.0813 11.8605 13.125 11.7874 13.1553C11.564 13.2478 11.3068 13.1966 11.1358 13.0256C11.0233 12.9135 10.96 12.7611 10.96 12.6022C10.96 12.4433 11.0233 12.2909 11.1358 12.1788V12.1801C11.168 12.1479 11.2032 12.12 11.2406 12.0965L13.8355 9.49845L11.1358 6.80182L11.1444 6.79319C11.0907 6.73904 11.0469 6.67414 11.0165 6.60088C10.924 6.37745 10.9751 6.12027 11.1461 5.94927C11.2584 5.83633 11.411 5.77283 11.5702 5.77283C11.7295 5.77283 11.8821 5.83633 11.9944 5.94927H11.9917C12.0207 5.97825 12.0462 6.0097 12.0682 6.04304L14.6798 8.65303L17.2988 6.03085C17.3191 6.00156 17.3422 5.97368 17.3683 5.94761C17.5393 5.77659 17.7965 5.72543 18.0199 5.81797C18.2433 5.91052 18.389 6.12854 18.389 6.37038C18.389 6.53121 18.3246 6.6815 18.2157 6.79137L18.2225 6.79816L15.5257 9.49831L18.1355 12.1065C18.1676 12.128 18.1978 12.1527 18.2255 12.1804L18.2242 12.1818C18.3952 12.3528 18.4463 12.6099 18.3538 12.8334C18.2613 13.0568 18.0432 13.2025 17.8014 13.2025C17.6406 13.2025 17.4903 13.1381 17.3804 13.0292L17.3753 13.0343L14.6815 10.3435L11.99 13.0383L11.9794 13.0277Z" fill="white" />
</svg>
