<svg width="24" height="22" viewBox="0 0 24 22" fill="none" xmlns="http://www.w3.org/2000/svg">
<path d="M9.29167 5H3.45833C2.16967 5 1.125 6.04467 1.125 7.33333V17.8333C1.125 19.122 2.16967 20.1667 3.45833 20.1667H19.7917C21.0803 20.1667 22.125 19.122 22.125 17.8333V7.33333C22.125 6.04467 21.0803 5 19.7917 5H13.9583M9.29167 5V3.83333C9.29167 2.54467 10.3363 1.5 11.625 1.5C12.9137 1.5 13.9583 2.54467 13.9583 3.83333V5M9.29167 5C9.29167 6.28866 10.3363 7.33333 11.625 7.33333C12.9137 7.33333 13.9583 6.28866 13.9583 5M8.125 14.3333C9.41366 14.3333 10.4583 13.2887 10.4583 12C10.4583 10.7113 9.41366 9.66667 8.125 9.66667C6.83634 9.66667 5.79167 10.7113 5.79167 12C5.79167 13.2887 6.83634 14.3333 8.125 14.3333ZM8.125 14.3333C9.64892 14.3333 10.9453 15.3073 11.4258 16.6667M8.125 14.3333C6.60108 14.3333 5.30457 15.3073 4.8241 16.6667M15.125 10.8333H18.625M15.125 15.5H17.4583" stroke="currentColor" stroke-width="2" stroke-linecap="round" stroke-linejoin="round"/>
</svg>
