<svg width="22" height="21" viewBox="0 0 22 21" fill="none" xmlns="http://www.w3.org/2000/svg">
<path d="M5.70829 2C6.26058 2 6.70829 1.55228 6.70829 1C6.70829 0.447715 6.26058 1.19209e-07 5.70829 1.19209e-07V2ZM3.54163 1V2V1ZM1.04163 3.5H0.0416261H1.04163ZM0.041626 6C0.041626 6.55228 0.489341 7 1.04163 7C1.59391 7 2.04163 6.55228 2.04163 6H0.041626ZM15.0416 19C14.4894 19 14.0416 19.4477 14.0416 20C14.0416 20.5523 14.4894 21 15.0416 21V19ZM17.5416 20V19V20ZM20.0416 17.5H21.0416H20.0416ZM21.0416 15C21.0416 14.4477 20.5939 14 20.0416 14C19.4894 14 19.0416 14.4477 19.0416 15H21.0416ZM19.0416 6C19.0416 6.55228 19.4893 7 20.0416 7C20.5939 7 21.0416 6.55228 21.0416 6H19.0416ZM20.0416 3.5H19.0416H20.0416ZM17.5416 1V3.57628e-07V1ZM15.0416 1.19209e-07C14.4893 5.96046e-08 14.0416 0.447715 14.0416 1C14.0416 1.55228 14.4893 2 15.0416 2V1.19209e-07ZM2.04164 15C2.04164 14.4477 1.59392 14 1.04164 14C0.489353 14 0.0416372 14.4477 0.0416372 15H2.04164ZM1.04164 17.5H2.04164H1.04164ZM3.54164 20V19H3.54164L3.54164 20ZM6.04164 21C6.59392 21 7.04164 20.5523 7.04164 20C7.04164 19.4477 6.59392 19 6.04164 19V21ZM5.70829 1.19209e-07L3.54163 0V2L5.70829 2V1.19209e-07ZM0.0416261 3.5L0.041626 6H2.04163L2.04163 3.5H0.0416261ZM3.54163 0C1.60863 -1.19209e-07 0.0416262 1.567 0.0416261 3.5H2.04163C2.04163 2.67157 2.7132 2 3.54163 2V0ZM15.0416 21H17.5416V19H15.0416V21ZM21.0416 17.5V15H19.0416V17.5H21.0416ZM17.5416 21C19.4746 21 21.0416 19.433 21.0416 17.5H19.0416C19.0416 18.3284 18.3701 19 17.5416 19V21ZM21.0416 6V3.5H19.0416V6H21.0416ZM17.5416 3.57628e-07L15.0416 1.19209e-07V2L17.5416 2V3.57628e-07ZM21.0416 3.5C21.0416 1.567 19.4746 5.36442e-07 17.5416 3.57628e-07V2C18.37 2 19.0416 2.67157 19.0416 3.5H21.0416ZM0.0416372 15L0.0416367 17.5H2.04164L2.04164 15H0.0416372ZM3.54164 21H6.04164V19H3.54164V21ZM0.0416367 17.5C0.0416364 19.433 1.60864 21 3.54164 21L3.54164 19C2.71321 19 2.04164 18.3284 2.04164 17.5H0.0416367ZM5.54161 6H8.54161V4H5.54161V6ZM8.04161 5.5V8.5H10.0416V5.5H8.04161ZM8.54161 8H5.54161V10H8.54161V8ZM6.04161 8.5V5.5H4.04161V8.5H6.04161ZM5.54161 8C5.81775 8 6.04161 8.22386 6.04161 8.5H4.04161C4.04161 9.32843 4.71318 10 5.54161 10V8ZM8.04161 8.5C8.04161 8.22386 8.26546 8 8.54161 8V10C9.37003 10 10.0416 9.32843 10.0416 8.5H8.04161ZM8.54161 6C8.26546 6 8.04161 5.77614 8.04161 5.5H10.0416C10.0416 4.67157 9.37003 4 8.54161 4V6ZM5.54161 4C4.71318 4 4.04161 4.67157 4.04161 5.5H6.04161C6.04161 5.77614 5.81775 6 5.54161 6V4ZM5.54161 13H8.54161V11H5.54161V13ZM8.04161 12.5V15.5H10.0416V12.5H8.04161ZM8.54161 15H5.54161V17H8.54161V15ZM6.04161 15.5V12.5H4.04161V15.5H6.04161ZM5.54161 15C5.81775 15 6.04161 15.2239 6.04161 15.5H4.04161C4.04161 16.3284 4.71318 17 5.54161 17V15ZM8.04161 15.5C8.04161 15.2239 8.26546 15 8.54161 15V17C9.37003 17 10.0416 16.3284 10.0416 15.5H8.04161ZM8.54161 13C8.26546 13 8.04161 12.7761 8.04161 12.5H10.0416C10.0416 11.6716 9.37003 11 8.54161 11V13ZM5.54161 11C4.71318 11 4.04161 11.6716 4.04161 12.5H6.04161C6.04161 12.7761 5.81775 13 5.54161 13V11ZM12.5416 13H15.5416V11H12.5416V13ZM15.0416 12.5V15.5H17.0416V12.5H15.0416ZM15.5416 15H12.5416V17H15.5416V15ZM13.0416 15.5V12.5H11.0416V15.5H13.0416ZM12.5416 15C12.8177 15 13.0416 15.2239 13.0416 15.5H11.0416C11.0416 16.3284 11.7132 17 12.5416 17V15ZM15.0416 15.5C15.0416 15.2239 15.2655 15 15.5416 15V17C16.37 17 17.0416 16.3284 17.0416 15.5H15.0416ZM15.5416 13C15.2655 13 15.0416 12.7761 15.0416 12.5H17.0416C17.0416 11.6716 16.37 11 15.5416 11V13ZM12.5416 11C11.7132 11 11.0416 11.6716 11.0416 12.5H13.0416C13.0416 12.7761 12.8177 13 12.5416 13V11ZM12.5416 6H15.5416V4H12.5416V6ZM15.0416 5.5V8.5H17.0416V5.5H15.0416ZM15.5416 8H12.5416V10H15.5416V8ZM13.0416 8.5V5.5H11.0416V8.5H13.0416ZM12.5416 8C12.8177 8 13.0416 8.22386 13.0416 8.5H11.0416C11.0416 9.32843 11.7132 10 12.5416 10V8ZM15.0416 8.5C15.0416 8.22386 15.2655 8 15.5416 8V10C16.37 10 17.0416 9.32843 17.0416 8.5H15.0416ZM15.5416 6C15.2655 6 15.0416 5.77614 15.0416 5.5H17.0416C17.0416 4.67157 16.37 4 15.5416 4V6ZM12.5416 4C11.7132 4 11.0416 4.67157 11.0416 5.5H13.0416C13.0416 5.77614 12.8177 6 12.5416 6V4Z" fill="currentColor"/>
</svg>
