<svg width="24" height="24" viewBox="0 0 24 24" fill="none" xmlns="http://www.w3.org/2000/svg">
<path d="M22.375 12C22.375 17.799 17.674 22.5 11.875 22.5M22.375 12C22.375 6.20101 17.674 1.5 11.875 1.5M22.375 12H18M11.875 22.5C6.07601 22.5 1.375 17.799 1.375 12M11.875 22.5V18.125M1.375 12C1.375 6.20101 6.07601 1.5 11.875 1.5M1.375 12H5.75M11.875 1.5V5.875M18 12C18 15.3827 15.2577 18.125 11.875 18.125M18 12C18 8.61726 15.2577 5.875 11.875 5.875M11.875 18.125C8.49226 18.125 5.75 15.3827 5.75 12M5.75 12C5.75 8.61726 8.49226 5.875 11.875 5.875M7.54397 7.66891L4.45038 4.57532M7.54397 16.3311L4.45038 19.4246M16.206 16.3311L19.2996 19.4246M16.206 7.66891L19.2996 4.57532" stroke="currentColor" stroke-width="2" stroke-linecap="round" stroke-linejoin="round"/>
</svg>
