<svg width="24" height="24" viewBox="0 0 24 24" fill="none" xmlns="http://www.w3.org/2000/svg">
<path d="M10.1704 3.03686C10.6679 0.987713 13.5821 0.987714 14.0796 3.03686C14.401 4.36058 15.9175 4.98877 17.0808 4.27999C18.8815 3.18279 20.9422 5.24349 19.845 7.04422C19.1362 8.20746 19.7644 9.72404 21.0881 10.0454C23.1373 10.5429 23.1373 13.4571 21.0881 13.9546C19.7644 14.276 19.1362 15.7925 19.845 16.9558C20.9422 18.7565 18.8815 20.8172 17.0808 19.72C15.9175 19.0112 14.401 19.6394 14.0796 20.9631C13.5821 23.0123 10.6679 23.0123 10.1704 20.9631C9.84904 19.6394 8.33247 19.0112 7.16922 19.72C5.36849 20.8172 3.30779 18.7565 4.40499 16.9558C5.11377 15.7925 4.48558 14.276 3.16186 13.9546C1.11271 13.4571 1.11271 10.5429 3.16186 10.0454C4.48558 9.72404 5.11377 8.20746 4.40499 7.04422C3.30779 5.24349 5.36849 3.18279 7.16922 4.27999C8.33246 4.98877 9.84904 4.36058 10.1704 3.03686Z" stroke="currentColor" stroke-width="2" stroke-linecap="round" stroke-linejoin="round"/>
<path d="M15.625 12C15.625 13.933 14.058 15.5 12.125 15.5C10.192 15.5 8.625 13.933 8.625 12C8.625 10.067 10.192 8.5 12.125 8.5C14.058 8.5 15.625 10.067 15.625 12Z" stroke="currentColor" stroke-width="2" stroke-linecap="round" stroke-linejoin="round"/>
</svg>
