<svg width="20" height="20" viewBox="0 0 20 20" fill="none" xmlns="http://www.w3.org/2000/svg">
    <mask id="mask0_957_1198" style="mask-type:alpha" maskUnits="userSpaceOnUse" x="0" y="0" width="20" height="20">
        <rect width="20" height="20" fill="#D9D9D9" />
    </mask>
    <g mask="url(#mask0_957_1198)">
        <path
            d="M2.604 9.167V2.604H9.188V9.167H2.604ZM4.25 7.521H7.542V4.25H4.25V7.521ZM2.604 17.396V10.812H9.188V17.396H2.604ZM4.25 15.75H7.583V12.458H4.25V15.75ZM10.833 9.167V2.604H17.396V9.167H10.833ZM12.479 7.521H15.75V4.25H12.479V7.521ZM15.771 17.396V15.729H17.396V17.396H15.771ZM10.833 12.458V10.812H12.479V12.458H10.833ZM12.479 14.083V12.458H14.125V14.083H12.479ZM10.833 15.729V14.083H12.479V15.729H10.833ZM12.479 17.396V15.729H14.125V17.396H12.479ZM14.125 15.729V14.083H15.771V15.729H14.125ZM14.125 12.458V10.812H15.771V12.458H14.125ZM15.771 14.083V12.458H17.396V14.083H15.771Z"
            fill="currentColor" />
    </g>
</svg>