<svg width="12" height="14" viewBox="0 0 12 14" fill="none" xmlns="http://www.w3.org/2000/svg">
    <path fill-rule="evenodd" clip-rule="evenodd" d="M1.20002 0.600006C1.64185 0.600006 2.00002 0.958178 2.00002 1.40001V3.08101C3.0161 2.04391 4.43244 1.40001 6.00002 1.40001C8.43955 1.40001 10.5128 2.95946 11.2812 5.13341C11.4284 5.54998 11.2101 6.00704 10.7935 6.15428C10.3769 6.30152 9.91986 6.08318 9.77262 5.6666C9.22313 4.11193 7.7404 3.00001 6.00002 3.00001C4.69208 3.00001 3.52965 3.62802 2.79951 4.60001H5.20002C5.64185 4.60001 6.00002 4.95818 6.00002 5.40001C6.00002 5.84183 5.64185 6.20001 5.20002 6.20001H1.20002C0.758197 6.20001 0.400024 5.84183 0.400024 5.40001V1.40001C0.400024 0.958178 0.758197 0.600006 1.20002 0.600006ZM1.20656 7.84573C1.62313 7.6985 2.08019 7.91684 2.22743 8.33341C2.77692 9.88808 4.25965 11 6.00002 11C7.30797 11 8.4704 10.372 9.20054 9.40001L6.80002 9.40001C6.3582 9.40001 6.00003 9.04183 6.00003 8.60001C6.00003 8.15818 6.3582 7.80001 6.80002 7.80001H10.8C11.0122 7.8 11.2157 7.88429 11.3657 8.03432C11.5157 8.18435 11.6 8.38783 11.6 8.60001V12.6C11.6 13.0418 11.2419 13.4 10.8 13.4C10.3582 13.4 10 13.0418 10 12.6V10.919C8.98395 11.9561 7.56761 12.6 6.00002 12.6C3.5605 12.6 1.48726 11.0405 0.718882 8.8666C0.571644 8.45003 0.789984 7.99297 1.20656 7.84573Z" fill="white"/>
</svg>
