<svg width="14" height="14" viewBox="0 0 14 14" fill="none" xmlns="http://www.w3.org/2000/svg">
<path d="M4.69997 10.2L6.99997 7.9L9.29997 10.2L10.2 9.3L7.89997 7L10.2 4.7L9.29997 3.8L6.99997 6.1L4.69997 3.8L3.79997 4.7L6.09997 7L3.79997 9.3L4.69997 10.2ZM6.99997 13.5336C6.0997 13.5336 5.2525 13.364 4.45837 13.0248C3.6637 12.6861 2.9693 12.2195 2.37517 11.6248C1.7805 11.0307 1.31384 10.3363 0.97517 9.5416C0.63597 8.74747 0.46637 7.90027 0.46637 7C0.46637 6.08907 0.63597 5.2392 0.97517 4.4504C1.31384 3.66107 1.7805 2.96933 2.37517 2.3752C2.9693 1.78053 3.6637 1.31387 4.45837 0.9752C5.2525 0.636 6.0997 0.4664 6.99997 0.4664C7.9109 0.4664 8.76104 0.636 9.55037 0.9752C10.3392 1.31387 11.0306 1.78053 11.6248 2.3752C12.2194 2.96933 12.6861 3.66107 13.0248 4.4504C13.364 5.2392 13.5336 6.08907 13.5336 7C13.5336 7.90027 13.364 8.74747 13.0248 9.5416C12.6861 10.3363 12.2194 11.0307 11.6248 11.6248C11.0306 12.2195 10.3392 12.6861 9.55037 13.0248C8.76104 13.364 7.9109 13.5336 6.99997 13.5336Z" fill="#F97066"/>
</svg>
