<svg width="53" height="52" viewBox="0 0 53 52" fill="none" xmlns="http://www.w3.org/2000/svg">
<rect x="0.5" width="52" height="52" rx="26" fill="#173385" fill-opacity="0.6"/>
<path d="M17.937 30.3382L17.9371 30.338C18.23 29.8609 18.6138 29.5027 19.0935 29.2539C20.2661 28.6679 21.4546 28.2296 22.6595 27.9374C23.5462 27.723 24.4442 27.5874 25.3508 27.5307C25.6779 27.5102 25.9746 27.7806 25.9746 28.1562C25.9746 28.5165 25.6732 28.8427 25.2593 28.8746C24.4936 28.9336 23.7322 29.0557 22.9768 29.2409L22.9765 29.241C21.8687 29.5133 20.7741 29.9206 19.6931 30.4611L19.6833 30.466L19.6738 30.4713C19.4218 30.6113 19.2185 30.8087 19.0681 31.0553C18.9105 31.3123 18.8333 31.5979 18.8333 31.9V32.8333V33.3333H19.3333H25.3079C25.6761 33.3333 25.9746 33.6318 25.9746 34C25.9746 34.3682 25.6761 34.6667 25.3079 34.6667H19.3333C18.8252 34.6667 18.403 34.4917 18.0396 34.1283C17.6752 33.7639 17.5 33.3412 17.5 32.8333V31.9C17.5 31.3297 17.6455 30.8127 17.937 30.3382ZM31.7788 29.3834H30.5717L31.4253 30.237L35.5485 34.3602C35.7399 34.5516 35.7399 34.8618 35.5485 35.0531C35.3572 35.2445 35.047 35.2445 34.8556 35.0531L30.7324 30.9299L29.8788 30.0763V31.2834V33.8834C29.8788 34.1596 29.655 34.3834 29.3788 34.3834C29.1027 34.3834 28.8788 34.1596 28.8788 33.8834V28.8834C28.8788 28.6073 29.1027 28.3834 29.3788 28.3834H34.3788C34.6549 28.3834 34.8788 28.6073 34.8788 28.8834C34.8788 29.1596 34.6549 29.3834 34.3788 29.3834H31.7788ZM26.3333 25.3333C25.1837 25.3333 24.2119 24.9298 23.3911 24.1089C22.5702 23.2881 22.1667 22.3163 22.1667 21.1667C22.1667 20.017 22.5702 19.0453 23.3911 18.2244C24.2119 17.4035 25.1837 17 26.3333 17C27.483 17 28.4547 17.4035 29.2756 18.2244C30.0965 19.0453 30.5 20.017 30.5 21.1667C30.5 22.3163 30.0965 23.2881 29.2756 24.1089C28.4547 24.9298 27.483 25.3333 26.3333 25.3333ZM26.3333 24C27.1088 24 27.7851 23.7178 28.3354 23.1676C28.8851 22.6179 29.1667 21.9419 29.1667 21.1667C29.1667 20.3915 28.8851 19.7154 28.3354 19.1658C27.7851 18.6155 27.1088 18.3333 26.3333 18.3333C25.558 18.3333 24.8819 18.6155 24.3324 19.1659C23.7821 19.7154 23.5 20.3914 23.5 21.1667C23.5 21.942 23.7821 22.618 24.3324 23.1676C24.882 23.7179 25.558 24 26.3333 24Z" fill="#A1A1AA" stroke="#60A5FA"/>
</svg>
