<svg width="16" height="14" viewBox="0 0 16 14" fill="none" xmlns="http://www.w3.org/2000/svg">
<path d="M4.46663 11.8667L2.6333 11.4667C2.46663 11.4333 2.3333 11.3471 2.2333 11.208C2.1333 11.0693 2.09441 10.9167 2.11663 10.75L2.29997 8.86666L1.04997 7.43332C0.938856 7.3111 0.883301 7.16666 0.883301 6.99999C0.883301 6.83332 0.938856 6.68888 1.04997 6.56666L2.29997 5.13332L2.11663 3.24999C2.09441 3.08332 2.1333 2.93066 2.2333 2.79199C2.3333 2.65288 2.46663 2.56666 2.6333 2.53332L4.46663 2.13332L5.4333 0.49999C5.52219 0.355545 5.64441 0.261101 5.79997 0.216657C5.95552 0.172212 6.11108 0.177768 6.26663 0.233323L7.99997 0.966657L9.7333 0.233323C9.88886 0.177768 10.0444 0.172212 10.2 0.216657C10.3555 0.261101 10.4777 0.355545 10.5666 0.49999L11.5333 2.13332L13.3666 2.53332C13.5333 2.56666 13.6666 2.65288 13.7666 2.79199C13.8666 2.93066 13.9055 3.08332 13.8833 3.24999L13.7 5.13332L14.95 6.56666C15.0611 6.68888 15.1166 6.83332 15.1166 6.99999C15.1166 7.16666 15.0611 7.3111 14.95 7.43332L13.7 8.86666L13.8833 10.75C13.9055 10.9167 13.8666 11.0693 13.7666 11.208C13.6666 11.3471 13.5333 11.4333 13.3666 11.4667L11.5333 11.8667L10.5666 13.5C10.4777 13.6444 10.3555 13.7389 10.2 13.7833C10.0444 13.8278 9.88886 13.8222 9.7333 13.7667L7.99997 13.0333L6.26663 13.7667C6.11108 13.8222 5.95552 13.8278 5.79997 13.7833C5.64441 13.7389 5.52219 13.6444 5.4333 13.5L4.46663 11.8667ZM6.8333 8.89999C6.95552 9.02221 7.11108 9.08332 7.29997 9.08332C7.48886 9.08332 7.64441 9.02221 7.76663 8.89999L10.6 6.06666C10.7333 5.93332 10.8 5.77488 10.8 5.59132C10.8 5.40821 10.7333 5.24999 10.6 5.11666C10.4666 4.98332 10.3084 4.91666 10.1253 4.91666C9.94175 4.91666 9.7833 4.98332 9.64997 5.11666L7.29997 7.46666L6.3333 6.51666C6.19997 6.39443 6.04175 6.33599 5.85863 6.34132C5.67508 6.3471 5.52219 6.4111 5.39997 6.53332C5.27775 6.65555 5.21663 6.8111 5.21663 6.99999C5.21663 7.18888 5.27775 7.34443 5.39997 7.46666L6.8333 8.89999Z" fill="#32D583"/>
</svg>
