<svg width="24" height="24" viewBox="0 0 24 24" fill="none" xmlns="http://www.w3.org/2000/svg">
<mask id="mask0_902_2202" style="mask-type:alpha" maskUnits="userSpaceOnUse" x="0" y="0" width="24" height="24">
<rect width="24" height="24" fill="#D9D9D9"/>
</mask>
<g mask="url(#mask0_902_2202)">
<path d="M6.69995 19.3L3.94995 18.7C3.69995 18.65 3.49995 18.5207 3.34995 18.312C3.19995 18.104 3.14162 17.875 3.17495 17.625L3.44995 14.8L1.57495 12.65C1.40828 12.4667 1.32495 12.25 1.32495 12C1.32495 11.75 1.40828 11.5334 1.57495 11.35L3.44995 9.20002L3.17495 6.37502C3.14162 6.12502 3.19995 5.89602 3.34995 5.68802C3.49995 5.47936 3.69995 5.35002 3.94995 5.30002L6.69995 4.70002L8.14995 2.25002C8.28328 2.03336 8.46662 1.89169 8.69995 1.82502C8.93328 1.75836 9.16662 1.76669 9.39995 1.85002L12 2.95002L14.6 1.85002C14.8333 1.76669 15.0666 1.75836 15.3 1.82502C15.5333 1.89169 15.7166 2.03336 15.85 2.25002L17.3 4.70002L20.0499 5.30002C20.2999 5.35002 20.5 5.47936 20.65 5.68802C20.7999 5.89602 20.8583 6.12502 20.825 6.37502L20.5499 9.20002L22.4249 11.35C22.5916 11.5334 22.6749 11.75 22.6749 12C22.6749 12.25 22.5916 12.4667 22.4249 12.65L20.5499 14.8L20.825 17.625C20.8583 17.875 20.7999 18.104 20.65 18.312C20.5 18.5207 20.2999 18.65 20.0499 18.7L17.3 19.3L15.85 21.75C15.7166 21.9667 15.5333 22.1084 15.3 22.175C15.0666 22.2417 14.8333 22.2334 14.6 22.15L12 21.05L9.39995 22.15C9.16662 22.2334 8.93328 22.2417 8.69995 22.175C8.46662 22.1084 8.28328 21.9667 8.14995 21.75L6.69995 19.3ZM10.25 14.85C10.4333 15.0334 10.6666 15.125 10.95 15.125C11.2333 15.125 11.4666 15.0334 11.65 14.85L15.9 10.6C16.1 10.4 16.2 10.1624 16.2 9.88702C16.2 9.61236 16.1 9.37502 15.9 9.17502C15.7 8.97502 15.4626 8.87502 15.188 8.87502C14.9126 8.87502 14.675 8.97502 14.475 9.17502L10.95 12.7L9.49995 11.275C9.29995 11.0917 9.06262 11.004 8.78795 11.012C8.51262 11.0207 8.28329 11.1167 8.09995 11.3C7.91662 11.4834 7.82495 11.7167 7.82495 12C7.82495 12.2834 7.91662 12.5167 8.09995 12.7L10.25 14.85ZM9.44995 19.95L12 18.85L14.6 19.95L16 17.55L18.75 16.9L18.5 14.1L20.35 12L18.5 9.85002L18.75 7.05002L16 6.45002L14.55 4.05002L12 5.15002L9.39995 4.05002L7.99995 6.45002L5.24995 7.05002L5.49995 9.85002L3.64995 12L5.49995 14.1L5.24995 16.95L7.99995 17.55L9.44995 19.95Z" fill="#71717A"/>
</g>
</svg>
